<svg width="20" height="20" viewBox="0 0 20 20" fill="none" xmlns="http://www.w3.org/2000/svg">
<path fill-rule="evenodd" clip-rule="evenodd" d="M14.4625 18.5269C12.7791 18.1052 9.33282 16.9161 6.20854 13.7919C3.08428 10.6676 1.89524 7.22136 1.47347 5.53795C1.23108 4.57052 1.66756 3.63698 2.40765 3.10834L4.34786 1.72247C5.48309 0.911597 7.06234 1.18676 7.85644 2.33379L9.07791 4.09816C9.59641 4.84711 9.41758 5.87361 8.67633 6.40307L7.70236 7.09877C7.84977 7.66261 8.30823 8.82053 9.74407 10.2564C11.1799 11.6922 12.3378 12.1506 12.9017 12.298L13.5973 11.324C14.1268 10.5829 15.1533 10.4039 15.9022 10.9224L17.6667 12.1439C18.8137 12.9381 19.0888 14.5173 18.2779 15.6525L16.8921 17.5928C16.3634 18.3329 15.4299 18.7694 14.4625 18.5269ZM7.38705 12.6134C10.2282 15.4545 13.3636 16.5334 14.8675 16.9103C15.0873 16.9653 15.3531 16.8799 15.5358 16.624L16.9217 14.6838C17.192 14.3054 17.1003 13.779 16.7179 13.5143L14.9536 12.2928L14.207 13.338C13.9019 13.7652 13.3377 14.1002 12.6807 13.9584C11.8607 13.7815 10.3448 13.2141 8.56558 11.4349C6.78633 9.65561 6.2189 8.13978 6.04197 7.31978C5.90022 6.66278 6.23525 6.09854 6.6624 5.79343L7.70761 5.04685L6.48612 3.28247C6.22142 2.90012 5.695 2.80841 5.31659 3.0787L3.37638 4.46456C3.12052 4.64732 3.03509 4.91307 3.09017 5.13289C3.46698 6.63685 4.5459 9.7722 7.38705 12.6134Z" fill="#00ADEF"/>
</svg>
