<svg width="200" height="45" viewBox="0 0 200 45" fill="none" xmlns="http://www.w3.org/2000/svg">
<g clip-path="url(#clip0_231_22)">
<path fill-rule="evenodd" clip-rule="evenodd" d="M135.924 23.1374L142.987 12.4936H145.554V31.0591H142.657V17.9293L135.923 27.9626L129.189 17.9293V31.0591H126.292V12.4936H128.892L135.924 23.1374ZM151.517 31.0591V12.3943H154.48V31.0591H151.517ZM173.303 25.2426V12.4936H176.232V31.0591H174.584L163.479 18.3074V31.0591H160.549V12.4936H162.231L173.303 25.2426H173.303ZM190.276 12.4936C192.927 12.4936 195.383 13.2155 197.314 15.0838C199.199 16.9084 200 19.2211 200 21.8265C200 24.4035 199.24 26.7355 197.356 28.5368C195.416 30.3915 192.913 31.0592 190.276 31.0592H182.263V12.4937H190.276V12.4936ZM185.192 15.2575V28.2952H190.276C192.104 28.2952 193.88 27.8543 195.217 26.5469C196.527 25.2651 197.004 23.5958 197.004 21.7932C197.004 19.9779 196.493 18.3365 195.183 17.0493C193.844 15.7334 192.116 15.2574 190.276 15.2574H185.192V15.2575ZM64.5741 20.5437C65.305 21.0353 65.9416 21.6477 66.4032 22.4101C66.9469 23.3076 67.1835 24.2971 67.1835 25.3433C67.1835 26.9789 66.6758 28.4295 65.442 29.529C64.1507 30.6784 62.4864 31.065 60.7942 31.065H49.314V12.4995H60.2307C61.6841 12.4995 63.2932 12.7483 64.4444 13.7086C65.5363 14.62 65.9246 15.9162 65.9246 17.3049C65.9246 18.0255 65.7913 18.7264 65.4675 19.3737C65.2417 19.8263 64.9445 20.2178 64.5741 20.5438V20.5437ZM73.8696 28.3011H85.5304V31.0649H70.9401V12.4995H73.8696V28.3011V28.3011ZM89.9693 12.4994V24.4156C89.9693 25.4424 90.074 27.1323 90.8965 27.8799C91.7437 28.6494 93.6864 28.7316 94.7599 28.7316C95.8266 28.7316 97.7716 28.6494 98.6112 27.8808C99.4274 27.1332 99.5284 25.4379 99.5284 24.4156V12.4994H102.458V25.0123C102.458 26.827 102.082 28.7939 100.619 30.0165C99.0956 31.2898 96.6545 31.5286 94.7491 31.5286C92.8432 31.5286 90.4021 31.2898 88.8783 30.0165C87.4164 28.7939 87.0393 26.827 87.0393 25.0123V12.4994H89.9693ZM109.619 15.2633V19.7876H116.774V22.5515H109.619V28.301H122.174V31.0649H106.69V12.4994H121.445V15.2633H109.619H109.619ZM52.2435 28.301H61.2297C62.0361 28.301 62.8024 28.1025 63.378 27.5134C63.9617 26.9163 64.1542 26.1266 64.1542 25.3099C64.1542 24.4963 63.9563 23.7133 63.3771 23.1171C62.8005 22.5245 62.0382 22.3197 61.2296 22.3197H52.2434V28.3009L52.2435 28.301ZM52.2435 19.5559H60.4237C61.0806 19.5559 61.8255 19.4441 62.3399 19.001C62.8091 18.5978 62.9618 18.0348 62.9618 17.4318C62.9618 16.8306 62.8338 16.2173 62.3646 15.8047C61.8586 15.3593 61.0711 15.2632 60.4237 15.2632H52.2434V19.5558L52.2435 19.5559Z" fill="white"/>
<path fill-rule="evenodd" clip-rule="evenodd" d="M55.5527 41.3148V40.4992H53.7443C53.6326 40.4992 53.5415 40.4081 53.5415 40.2964V39.4481C53.5415 39.3364 53.6326 39.2453 53.7443 39.2453H56.6722C56.7839 39.2453 56.875 39.3364 56.875 39.4481V41.6645C56.875 41.7019 56.8664 41.7339 56.8476 41.7662C56.4875 42.3871 56.0035 42.8953 55.3796 43.252C54.7497 43.6121 54.0547 43.769 53.3316 43.769C52.2181 43.769 51.2376 43.4117 50.4511 42.6165C49.6604 41.8171 49.314 40.8218 49.314 39.7034C49.314 38.5833 49.6602 37.5853 50.4536 36.7855C51.2402 35.9927 52.2168 35.6333 53.3293 35.6333C54.0183 35.6333 54.6799 35.7792 55.2899 36.104C55.8893 36.4232 56.3693 36.8782 56.7338 37.451C56.7917 37.5421 56.7684 37.6622 56.6806 37.7249L55.9144 38.2722C55.8651 38.3074 55.8088 38.3184 55.7499 38.3045C55.6909 38.2906 55.6456 38.2555 55.6172 38.2019C55.4015 37.7938 55.0943 37.4767 54.6929 37.2482C54.2728 37.0091 53.8143 36.9008 53.3315 36.9008C52.5825 36.9008 51.9406 37.1476 51.4213 37.6909C50.8872 38.2498 50.6635 38.9353 50.6635 39.7033C50.6635 40.471 50.8858 41.1577 51.4211 41.7155C51.941 42.2573 52.5835 42.5014 53.3316 42.5014C53.7819 42.5014 54.2169 42.4127 54.6131 42.1938C54.9971 41.9816 55.3048 41.6728 55.5527 41.3146V41.3148ZM59.6819 42.3238H64.295C64.4067 42.3238 64.4978 42.4149 64.4978 42.5266V43.3748C64.4978 43.4865 64.4067 43.5776 64.295 43.5776H58.5624C58.4507 43.5776 58.3596 43.4865 58.3596 43.3748V36.0005C58.3596 35.8888 58.4507 35.7977 58.5624 35.7977H59.4791C59.5908 35.7977 59.6819 35.8888 59.6819 36.0005V42.3238V42.3238ZM68.3903 43.7691C67.2766 43.7691 66.2958 43.4126 65.5097 42.6165C64.7197 41.8165 64.3727 40.822 64.3727 39.7035C64.3727 38.5823 64.7206 37.586 65.5147 36.7856C66.3014 35.9927 67.2775 35.6334 68.3904 35.6334C69.5084 35.6334 70.4886 35.994 71.2797 36.7901C72.074 37.5894 72.4263 38.5821 72.4263 39.7035C72.4263 40.8241 72.0758 41.8181 71.2819 42.617C70.4916 43.4123 69.5067 43.769 68.3904 43.769L68.3903 43.7691ZM80.0813 39.1697C80.3655 39.3702 80.6125 39.6163 80.7951 39.9178C81.0249 40.2972 81.1254 40.7159 81.1254 41.1584C81.1254 41.8498 80.9089 42.4641 80.3871 42.9288C79.8433 43.4131 79.1436 43.5775 78.4304 43.5775H73.8356C73.7239 43.5775 73.6328 43.4864 73.6328 43.3747V36.0004C73.6328 35.8887 73.7239 35.7976 73.8356 35.7976H78.1977C78.8122 35.7976 79.4877 35.9041 79.974 36.3098C80.4382 36.6971 80.6055 37.2477 80.6055 37.8383C80.6055 38.1446 80.5484 38.4427 80.4108 38.7179C80.3251 38.8893 80.2154 39.0404 80.0814 39.1696L80.0813 39.1697ZM87.5679 41.5937H83.7441L82.8239 43.4643C82.7889 43.5353 82.7211 43.5775 82.6419 43.5775H81.6591C81.5871 43.5775 81.5252 43.5432 81.487 43.482C81.4489 43.4209 81.4453 43.3502 81.477 43.2855L85.0912 35.9112C85.1261 35.84 85.194 35.7977 85.2733 35.7977H86.0349C86.1139 35.7977 86.1815 35.8397 86.2166 35.9104L89.8719 43.2847C89.904 43.3494 89.9006 43.4203 89.8625 43.4817C89.8244 43.543 89.7624 43.5775 89.6902 43.5775H88.6937C88.6152 43.5775 88.548 43.5362 88.5127 43.4661L87.5679 41.5937ZM91.9292 42.3238H96.5423C96.654 42.3238 96.7451 42.4149 96.7451 42.5266V43.3748C96.7451 43.4865 96.654 43.5776 96.5423 43.5776H90.8097C90.698 43.5776 90.6069 43.4865 90.6069 43.3748V36.0005C90.6069 35.8888 90.698 35.7977 90.8097 35.7977H91.7264C91.8381 35.7977 91.9292 35.8888 91.9292 36.0005V42.3238V42.3238ZM68.3926 42.5016C69.1416 42.5016 69.7844 42.2575 70.3055 41.7156C70.8414 41.1584 71.0629 40.471 71.0629 39.7036C71.0629 38.9358 70.8417 38.2458 70.3074 37.6866C69.7868 37.1419 69.14 36.901 68.3926 36.901C67.6427 36.901 67.0005 37.1479 66.48 37.6913C65.9453 38.2496 65.7223 38.9359 65.7223 39.7036C65.7223 40.471 65.9438 41.1584 66.4797 41.7156C67.0008 42.2575 67.6436 42.5016 68.3926 42.5016ZM74.955 42.3238H78.6104C78.9276 42.3238 79.2306 42.2475 79.4573 42.0154C79.6877 41.7796 79.7621 41.4668 79.7621 41.1447C79.7621 40.8235 79.6857 40.5134 79.457 40.2782C79.2297 40.0445 78.9287 39.9656 78.6104 39.9656H74.955V42.3237V42.3238ZM74.955 38.7118H78.2775C78.5338 38.7118 78.8309 38.6696 79.0323 38.4964C79.213 38.3409 79.2696 38.1228 79.2696 37.8908C79.2696 37.66 79.2228 37.4198 79.0421 37.261C78.8446 37.0874 78.5293 37.0515 78.2776 37.0515H74.9551V38.7119L74.955 38.7118ZM84.3641 40.3262H86.9566L85.6549 37.7192L84.3642 40.3262H84.3641Z" fill="white"/>
<path fill-rule="evenodd" clip-rule="evenodd" d="M18.9312 0L36.3802 14.7364C37.4921 15.6755 38.5058 17.2046 39.0062 18.5672C40.3877 22.3291 39.5677 25.5536 37.9705 27.9067C37.3883 28.7645 36.5182 29.7158 35.7488 30.6268C36.1354 28.61 35.3392 25.6905 32.1314 22.9402L13.1184 6.88283L18.9312 0ZM22.6296 34.1319C21.7954 35.0243 20.3897 35.1201 19.4419 34.3323L19.5651 34.4363L11.3316 27.4834L5.75582 34.0855L16.6533 43.2889C19.6655 45.8329 24.2034 45.4114 26.7519 42.4034L32.0422 36.1591C34.5909 33.1509 34.1886 28.5936 31.1719 26.055L20.2763 16.8871L14.3356 23.9266L22.6665 30.9627L22.4543 30.7834C23.4072 31.6094 23.5264 33.0609 22.7185 34.0313C22.6895 34.0658 22.6598 34.0992 22.6296 34.1319V34.1319ZM11.1768 9.20149L17.9781 14.9454L3.44495 32.1338C2.61346 31.4457 1.69551 30.2069 1.01867 28.7379C-0.00884034 26.508 -0.671557 23.3656 1.1082 21.1036L11.1768 9.20143V9.20149Z" fill="#00AFEF"/>
</g>
<defs>
<clipPath id="clip0_231_22">
<rect width="200" height="44.9569" fill="white"/>
</clipPath>
</defs>
</svg>
