<svg width="150" height="34" viewBox="0 0 150 34" fill="none" xmlns="http://www.w3.org/2000/svg">
<g clip-path="url(#clip0_231_16)">
<path fill-rule="evenodd" clip-rule="evenodd" d="M101.943 17.353L107.24 9.3702H109.165V23.2943H106.993V13.447L101.942 20.9719L96.8916 13.447V23.2943H94.719V9.3702H96.669L101.943 17.353ZM113.638 23.2943V9.29575H115.86V23.2943H113.638ZM129.977 18.932V9.3702H132.174V23.2943H130.938L122.609 13.7305V23.2943H120.412V9.3702H121.673L129.977 18.932H129.977ZM142.707 9.3702C144.695 9.3702 146.537 9.91164 147.985 11.3128C149.399 12.6813 150 14.4158 150 16.3698C150 18.3026 149.43 20.0516 148.017 21.4026C146.562 22.7936 144.684 23.2944 142.707 23.2944H136.697V9.37024H142.707V9.3702ZM138.894 11.4431V21.2214H142.707C144.078 21.2214 145.41 20.8907 146.413 19.9102C147.395 18.9488 147.753 17.6968 147.753 16.3449C147.753 14.9834 147.37 13.7524 146.387 12.787C145.383 11.8 144.087 11.4431 142.707 11.4431H138.894V11.4431ZM48.4304 15.4078C48.9786 15.7765 49.4561 16.2358 49.8023 16.8076C50.21 17.4807 50.3875 18.2228 50.3875 19.0074C50.3875 20.2341 50.0067 21.3221 49.0814 22.1468C48.1129 23.0088 46.8646 23.2987 45.5956 23.2987H36.9854V9.37462H45.1729C46.2629 9.37462 47.4698 9.56119 48.3332 10.2814C49.1521 10.965 49.4434 11.9371 49.4434 12.9787C49.4434 13.5191 49.3433 14.0447 49.1005 14.5303C48.9312 14.8697 48.7082 15.1633 48.4304 15.4078V15.4078ZM55.4021 21.2258H64.1477V23.2987H53.2049V9.37457H55.4021V21.2258V21.2258ZM67.4769 9.37453V18.3117C67.4769 19.0818 67.5553 20.3492 68.1722 20.9099C68.8077 21.487 70.2647 21.5487 71.0698 21.5487C71.8698 21.5487 73.3286 21.487 73.9582 20.9106C74.5704 20.3499 74.6462 19.0784 74.6462 18.3117V9.37453H76.8433V18.7592C76.8433 20.1202 76.5612 21.5954 75.4641 22.5124C74.3216 23.4674 72.4908 23.6464 71.0617 23.6464C69.6323 23.6464 67.8015 23.4673 66.6586 22.5124C65.5622 21.5954 65.2794 20.1202 65.2794 18.7592V9.37453H67.4769ZM82.2139 11.4474V14.8407H87.5807V16.9136H82.2139V21.2257H91.6302V23.2986H80.017V9.37453H91.084V11.4474H82.2138H82.2139ZM39.1825 21.2257H45.9221C46.5269 21.2257 47.1017 21.0769 47.5334 20.6351C47.9711 20.1872 48.1156 19.5949 48.1156 18.9824C48.1156 18.3722 47.9671 17.785 47.5327 17.3378C47.1003 16.8933 46.5285 16.7398 45.9221 16.7398H39.1824V21.2257L39.1825 21.2257ZM39.1825 14.6669H45.3177C45.8103 14.6669 46.369 14.5831 46.7548 14.2507C47.1067 13.9484 47.2212 13.526 47.2212 13.0738C47.2212 12.623 47.1252 12.163 46.7733 11.8535C46.3938 11.5195 45.8032 11.4474 45.3176 11.4474H39.1824V14.6669L39.1825 14.6669Z" fill="#201E1E"/>
<path fill-rule="evenodd" clip-rule="evenodd" d="M41.6644 30.9861V30.3744H40.3081C40.2243 30.3744 40.156 30.306 40.156 30.2223V29.5861C40.156 29.5023 40.2243 29.434 40.3081 29.434H42.504C42.5878 29.434 42.6561 29.5023 42.6561 29.5861V31.2484C42.6561 31.2764 42.6496 31.3004 42.6356 31.3247C42.3655 31.7903 42.0025 32.1715 41.5345 32.439C41.0622 32.7091 40.5409 32.8267 39.9986 32.8267C39.1635 32.8267 38.4281 32.5588 37.8382 31.9624C37.2451 31.3628 36.9854 30.6163 36.9854 29.7776C36.9854 28.9375 37.245 28.189 37.8401 27.5891C38.43 26.9945 39.1625 26.725 39.9969 26.725C40.5136 26.725 41.0098 26.8344 41.4673 27.078C41.9168 27.3174 42.2768 27.6586 42.5502 28.0883C42.5937 28.1566 42.5762 28.2466 42.5103 28.2937L41.9357 28.7041C41.8987 28.7305 41.8565 28.7388 41.8123 28.7284C41.768 28.7179 41.7341 28.6917 41.7128 28.6514C41.551 28.3454 41.3206 28.1075 41.0195 27.9361C40.7044 27.7568 40.3606 27.6756 39.9985 27.6756C39.4367 27.6756 38.9553 27.8607 38.5659 28.2682C38.1653 28.6873 37.9975 29.2015 37.9975 29.7775C37.9975 30.3533 38.1642 30.8683 38.5657 31.2867C38.9557 31.6929 39.4375 31.8761 39.9986 31.8761C40.3363 31.8761 40.6625 31.8095 40.9597 31.6453C41.2477 31.4862 41.4785 31.2546 41.6644 30.986V30.9861ZM44.7613 31.7428H48.2211C48.3049 31.7428 48.3732 31.8111 48.3732 31.8949V32.5311C48.3732 32.6149 48.3049 32.6832 48.2211 32.6832H43.9217C43.8379 32.6832 43.7696 32.6149 43.7696 32.5311V27.0004C43.7696 26.9166 43.8379 26.8483 43.9217 26.8483H44.6092C44.693 26.8483 44.7613 26.9166 44.7613 27.0004V31.7429V31.7428ZM51.2926 32.8268C50.4573 32.8268 49.7217 32.5595 49.1322 31.9624C48.5397 31.3624 48.2794 30.6165 48.2794 29.7776C48.2794 28.9367 48.5404 28.1895 49.1359 27.5892C49.7259 26.9945 50.458 26.7251 51.2927 26.7251C52.1312 26.7251 52.8663 26.9955 53.4596 27.5926C54.0554 28.192 54.3196 28.9366 54.3196 29.7776C54.3196 30.6181 54.0567 31.3636 53.4613 31.9627C52.8686 32.5592 52.1299 32.8268 51.2927 32.8268L51.2926 32.8268ZM60.0609 29.3773C60.274 29.5276 60.4593 29.7122 60.5962 29.9383C60.7686 30.2229 60.8439 30.5369 60.8439 30.8688C60.8439 31.3874 60.6816 31.8481 60.2902 32.1966C59.8824 32.5598 59.3575 32.6832 58.8226 32.6832H55.3766C55.2928 32.6832 55.2245 32.6148 55.2245 32.5311V27.0003C55.2245 26.9165 55.2928 26.8482 55.3766 26.8482H58.6482C59.109 26.8482 59.6157 26.9281 59.9804 27.2324C60.3285 27.5228 60.454 27.9358 60.454 28.3787C60.454 28.6084 60.4112 28.832 60.308 29.0384C60.2437 29.167 60.1614 29.2803 60.0609 29.3772L60.0609 29.3773ZM65.6758 31.1953H62.8079L62.1178 32.5982C62.0916 32.6515 62.0407 32.6832 61.9813 32.6832H61.2442C61.1902 32.6832 61.1438 32.6574 61.1151 32.6115C61.0866 32.5657 61.0838 32.5126 61.1077 32.4641L63.8183 26.9334C63.8445 26.88 63.8954 26.8483 63.9549 26.8483H64.5261C64.5853 26.8483 64.636 26.8798 64.6623 26.9328L67.4038 32.4635C67.4279 32.512 67.4253 32.5652 67.3967 32.6113C67.3682 32.6573 67.3217 32.6832 67.2675 32.6832H66.5202C66.4613 32.6832 66.4109 32.6521 66.3844 32.5996L65.6758 31.1953ZM68.9468 31.7428H72.4066C72.4904 31.7428 72.5587 31.8111 72.5587 31.8949V32.5311C72.5587 32.6149 72.4904 32.6832 72.4066 32.6832H68.1072C68.0234 32.6832 67.9551 32.6149 67.9551 32.5311V27.0004C67.9551 26.9166 68.0234 26.8483 68.1072 26.8483H68.7947C68.8785 26.8483 68.9468 26.9166 68.9468 27.0004V31.7429V31.7428ZM51.2943 31.8762C51.8561 31.8762 52.3382 31.6931 52.729 31.2867C53.1309 30.8688 53.2971 30.3532 53.2971 29.7777C53.2971 29.2018 53.1312 28.6844 52.7304 28.265C52.34 27.8565 51.8549 27.6758 51.2943 27.6758C50.7319 27.6758 50.2502 27.8609 49.8599 28.2685C49.4588 28.6872 49.2916 29.2019 49.2916 29.7777C49.2916 30.3532 49.4578 30.8688 49.8596 31.2867C50.2505 31.6931 50.7325 31.8762 51.2943 31.8762ZM56.2162 31.7428H58.9577C59.1956 31.7428 59.4228 31.6856 59.5929 31.5116C59.7656 31.3347 59.8215 31.1001 59.8215 30.8585C59.8215 30.6176 59.7642 30.3851 59.5926 30.2086C59.4222 30.0333 59.1964 29.9742 58.9577 29.9742H56.2162V31.7428V31.7428ZM56.2162 29.0339H58.708C58.9003 29.0339 59.1231 29.0022 59.2741 28.8723C59.4096 28.7557 59.4521 28.5921 59.4521 28.4181C59.4521 28.245 59.417 28.0649 59.2814 27.9457C59.1333 27.8155 58.8969 27.7886 58.7081 27.7886H56.2162V29.0339L56.2162 29.0339ZM63.273 30.2447H65.2174L64.2411 28.2894L63.273 30.2447H63.273Z" fill="#201E1E"/>
<path fill-rule="evenodd" clip-rule="evenodd" d="M14.1984 0L27.2852 11.0523C28.1191 11.7566 28.8794 12.9034 29.2547 13.9254C30.2908 16.7468 29.6758 19.1652 28.4779 20.9301C28.0413 21.5734 27.3887 22.2869 26.8116 22.9701C27.1015 21.4575 26.5044 19.2679 24.0986 17.2051L9.83881 5.16212L14.1984 0ZM16.9722 25.599C16.3466 26.2682 15.2923 26.3401 14.5815 25.7492L14.6738 25.8272L8.49871 20.6125L4.31686 25.5641L12.4899 32.4666C14.7491 34.3746 18.1525 34.0586 20.0639 31.8025L24.0317 27.1193C25.9431 24.8632 25.6415 21.4452 23.3789 19.5413L15.2072 12.6653L10.7517 17.945L16.9999 23.222L16.8407 23.0876C17.5554 23.7071 17.6448 24.7957 17.0389 25.5235C17.0171 25.5493 16.9949 25.5744 16.9722 25.5989V25.599ZM8.38264 6.90112L13.4835 11.2091L2.58371 24.1004C1.96009 23.5842 1.27163 22.6552 0.764001 21.5534C-0.00663026 19.881 -0.503668 17.5242 0.831152 15.8277L8.38264 6.90107V6.90112Z" fill="#00AFEF"/>
</g>
<defs>
<clipPath id="clip0_231_16">
<rect width="150" height="33.7177" fill="white"/>
</clipPath>
</defs>
</svg>
